<svg xmlns="http://www.w3.org/2000/svg" viewBox="0 0 48 48" width="48" height="48" role="img" aria-label="Wanderkin">
  <title>Wanderkin</title>
  <rect x="0" y="0" width="48" height="48" rx="12" fill="#120726"></rect><circle cx="24" cy="31.6" r="16.2" fill="#8b6cff" fill-opacity=".28"></circle><circle cx="24" cy="31.2" r="14.9" fill="#8b6cff"></circle><circle cx="24" cy="31.6" r="14" fill="#f4eeff"></circle><circle cx="24" cy="33.5" r="13.5" fill="#1c0f38"></circle><path d="M20.6 30.4 27.4 37.2M27.4 30.4 20.6 37.2" stroke="#f2b24d" stroke-width="1.3" stroke-linecap="round"></path><circle cx="20.6" cy="30.4" r="1.8" fill="#b79cff"></circle><circle cx="27.4" cy="30.4" r="1.8" fill="#b79cff"></circle><circle cx="20.6" cy="37.2" r="1.8" fill="#b79cff"></circle><circle cx="27.4" cy="37.2" r="1.8" fill="#b79cff"></circle><g transform="translate(24 17.8) scale(.9)"><path d="M-2.2-3.6h1.8v2.7a.9.9 0 0 1-1.8 0ZM.4-3.6h1.8v2.7a.9.9 0 0 1-1.8 0Z" fill="#f2b24d"></path><rect x="-2.6" y="-8.6" width="5.2" height="5.8" rx="2.2" fill="#f2b24d"></rect><path d="M1.8-7.4 4.4-10.6" stroke="#f2b24d" stroke-width="1.6" stroke-linecap="round"></path><circle cx="0" cy="-11.1" r="2.6" fill="#f4eeff"></circle><path d="M-2.8-11.2a2.8 2.8 0 0 1 5.6 0Z" fill="#3f9f92"></path><rect x="-3" y="-11.7" width="6" height="1.2" rx="0.6" fill="#2b7a70"></rect><circle cx="0" cy="-14.2" r="0.9" fill="#3f9f92"></circle></g>
</svg>
